<svg xmlns="http://www.w3.org/2000/svg" xmlns:xlink="http://www.w3.org/1999/xlink" viewBox="1515.92 221.32 966.94 3554.92" style="clip-path: polygon(51% 0%, 151% 0%, 151% 100%, 51% 100%);"><path fill="#2E0202" transform="matrix(3.90625 0 0 3.90625 6.10352e-05 -0.00012207)" d="M470.28 64.4616C474.599 56.8485 478.23 57.2698 486.233 57.1831C503.944 57.0256 521.625 56.2273 539.337 56.972C542.907 57.1221 547.207 56.8669 550.236 59.1403C555.654 63.2059 553.121 70.0164 554.433 75.2882C555.964 78.8663 557.922 81.2503 557.885 85.4201C557.801 95.0268 560.116 101.486 553.353 109.546C553.913 122.826 553.756 136.037 554.289 149.258C555.326 174.924 555.475 200.729 556.577 226.384C557.521 233.513 556.842 243.558 557.569 251.765C560.444 284.194 565.497 313.242 575.183 344.476C591.725 397.816 619.91 441.724 630.036 497.283C635.561 527.603 634.814 539.818 635.169 570C635.571 590.097 635.698 610.199 635.551 630.299L635.385 797.66C635.235 821.783 635.152 845.898 635.192 870.025C635.205 887.808 636.122 905.768 634.646 923.506C633.81 930.146 631.95 936.502 629.194 942.579C623.087 956.047 611.779 960.528 597.861 962.146C578.157 964.435 558.129 965.685 538.298 966.309C508.042 967.269 477.757 966.546 447.583 964.142C436.098 963.152 412.75 961.812 403.986 954.594C384.872 938.85 388.61 906.265 388.136 884.115C387.981 877.921 388.165 871.98 388.182 866.047L388.404 774.134L388.525 627.82C388.478 581.566 386.155 532.384 396.032 487.102C403.406 453.299 419.001 420.548 432.373 388.85C452.174 341.909 467.211 285.925 467.057 234.676C466.534 226.488 467.642 215.515 467.921 207.047C468.774 181.197 469.608 155.277 470.091 129.418C470.22 122.507 470.678 116.085 470.542 109.124C468.579 106.982 467.851 106.187 466.243 103.698C466.062 96.7594 465.31 87.2319 466.926 80.4962C467.189 79.4014 469.157 76.516 469.869 75.4522L470.28 64.4616Z"></path><path fill="#470507" transform="matrix(3.90625 0 0 3.90625 6.10352e-05 -0.00012207)" d="M485.465 393.489C486.043 392.745 486.489 392.283 486.527 391.342C487.302 385.639 492.693 380.962 495.364 375.654C498.149 370.521 500.235 362.799 504.151 358.587C506.643 355.906 511.611 361.14 517.139 358.139C522.772 362.754 530.244 367.598 536.118 372.096C545.295 379.123 546.701 375.469 554.285 374.228C555.917 375.39 555.168 377.958 557.168 380.149C558.31 383.87 559.215 387.965 560.09 391.772C565.307 414.475 573.013 436.499 579.113 458.963C579.786 461.443 580.424 464.371 581.287 466.759C582.158 470.461 583.904 477.133 583.868 480.702L584.738 480.324C585.67 481.894 586.008 484.562 586.221 486.417C586.078 491.169 588.16 498.533 587.999 500.433L589.07 504.95C589.758 507.125 589.69 506.019 589.047 508.392C589.813 514.048 590.817 521.293 591.047 526.948C591.784 556.091 593.019 584.967 592.169 614.169C592.074 617.425 592.071 621.021 592.145 624.276C594.708 624.159 601.167 623.383 602.852 624.995C602.783 627.287 601.426 628.406 599.764 630.082C600.165 632.619 603.921 642.745 605.205 645.379C606.31 640.76 608.058 635.992 608.642 631.249C608.871 629.394 607.96 629.215 606.39 627.355C606.186 625.58 606.327 625.561 607.017 623.965L607.911 624.478C611.08 624.194 613.774 623.898 616.918 623.427L618.277 623.898C618.259 625.46 618.03 625.25 617 626.789C617.354 627.883 617.588 628.232 617.608 629.316L616.726 628.764C613.841 632.861 612.504 642.818 610.429 647.573C605.632 658.563 605.262 679.771 591.831 683.13C592.513 699.653 592.28 716.406 592.247 732.964L592.222 803.734L592.474 876.384C592.482 886.806 592.896 900.369 592.435 910.424L592.054 914.463C591.072 925.434 589.1 947.751 577.082 952.747L576.663 951.327C566.774 950.591 548.457 952.019 538.232 953.235C530.064 954.207 478.774 952.825 476.981 954.174C474.919 951.232 471.039 945.937 469.987 942.615C464.35 924.813 465.592 904.778 465.416 886.293L465.488 882.085C466.034 834.584 465.494 785.136 465.219 737.537L465.148 690.232C465.162 682.913 464.83 672.694 465.377 665.706C466.977 665.563 467.096 665.427 468.539 664.82C470.102 664.253 469.466 664.698 470.539 663.463L470.222 662.337C468.675 660.969 468.535 660.976 466.517 660.337C465.467 660.279 465.281 660.155 464.251 659.877C463.38 652.299 463.857 637.929 464.153 629.889C464.173 629.365 465.388 626.789 465.716 626.104L464.777 625.306L464.284 624.427L464.835 623.211C464.751 621.448 464.878 620.377 463.982 618.863C451.038 621.597 453.151 601.362 463.955 606.476C465.575 605.096 465.009 602.013 465.035 599.242C465.459 554.452 464.174 511.298 473.945 467.178C475.368 462.942 477.123 453.221 477.962 448.661C481.312 430.433 482.943 411.845 485.465 393.489Z"></path><defs><linearGradient id="gradient_0" gradientUnits="userSpaceOnUse" x1="541.61108" y1="867.02002" x2="507.48965" y2="963.30493"><stop offset="0" stop-color="#200000"></stop><stop offset="1" stop-color="#430404"></stop></linearGradient></defs><path fill="url(#gradient_0)" transform="matrix(3.90625 0 0 3.90625 6.10352e-05 -0.00012207)" d="M465.488 882.085C467.497 871.4 492.244 861.189 502.319 859.995C525.049 857.302 539.834 864.287 557.351 877.666C568.725 887.919 581.4 902.929 592.054 914.463C591.072 925.434 589.1 947.751 577.082 952.747L576.663 951.327C566.774 950.591 548.457 952.019 538.232 953.235C530.064 954.207 478.774 952.825 476.981 954.174C474.919 951.232 471.039 945.937 469.987 942.615C464.35 924.813 465.592 904.778 465.416 886.293L465.488 882.085Z"></path><path fill="#641215" transform="matrix(3.90625 0 0 3.90625 6.10352e-05 -0.00012207)" d="M586.886 681.835C588.32 682.31 590.417 683.141 591.831 683.13C592.513 699.653 592.28 716.406 592.247 732.964L592.222 803.734L592.474 876.384C592.482 886.806 592.896 900.369 592.435 910.424L592.054 914.463C581.4 902.929 568.725 887.919 557.351 877.666L557.49 877.03C560.516 878.823 561.535 880.914 564.664 882.917L565.377 882.57C568.397 875.635 561.497 865.059 562.254 857.521C563.73 844.423 563.092 831.157 564.916 818.148C567.753 797.92 563.913 777.392 568.617 757.177C569.835 751.944 568.14 751.553 572.327 747.478L572.898 746.929C572.43 744.105 571.757 740.9 574.39 739.076C578.666 739.547 579.049 746.472 579.232 749.921C579.336 751.876 578.229 750.992 576.744 752.366C576.22 755.185 577.054 760.158 577.387 763.24L578.642 761.449L579.461 761.436L580.026 763.209C581.323 763.158 580.791 762.943 581.668 763.722C581.066 765.907 580.394 765.006 580.55 767.406L581.231 766.956L581.612 767.235C582.215 772.049 581.657 776.299 582.176 780.887L583.007 780.417L583.195 781.29L582.094 782.195L582.065 782.981L582.718 782.55C583.416 783.096 583.301 787.835 583.337 789.145L585.089 846.497C585.247 851.849 584.271 857.347 584.774 862.647C585.053 865.595 587.61 866.494 589.858 867.817L590.491 867.502C591.04 865.791 591.343 863.837 591.339 861.419C591.226 802.754 591.647 744.049 591.237 685.397C591.227 683.914 587.824 683.437 586.886 681.835Z"></path><path fill="#641215" transform="matrix(3.90625 0 0 3.90625 6.10352e-05 -0.00012207)" d="M581.287 466.759C582.158 470.461 583.904 477.133 583.868 480.702L584.738 480.324C585.67 481.894 586.008 484.562 586.221 486.417C586.078 491.169 588.16 498.533 587.999 500.433L589.07 504.95C589.758 507.125 589.69 506.019 589.047 508.392C589.813 514.048 590.817 521.293 591.047 526.948C588.463 524.166 568.166 520.387 564.478 512.632C561.968 508.266 558.814 499.421 558.013 494.486C556.749 486.7 562.992 473.018 570.929 470.559C574.259 469.528 578.608 468.769 581.287 466.759Z"></path><path fill="#99555D" transform="matrix(3.90625 0 0 3.90625 6.10352e-05 -0.00012207)" d="M584.738 480.324C585.67 481.894 586.008 484.562 586.221 486.417C586.078 491.169 588.16 498.533 587.999 500.433L587.346 502.692C580.872 506.292 573.042 499.787 572.965 492.941C572.885 485.854 580.193 485.855 585.26 485.741C585.128 483.931 584.954 482.125 584.738 480.324Z"></path><path fill="#6E3338" transform="matrix(3.90625 0 0 3.90625 6.10352e-05 -0.00012207)" d="M583.868 480.702L584.738 480.324C584.954 482.125 585.128 483.931 585.26 485.741C580.193 485.855 572.885 485.854 572.965 492.941C573.042 499.787 580.872 506.292 587.346 502.692L587.999 500.433L589.07 504.95C589.758 507.125 589.69 506.019 589.047 508.392C587.744 506.623 588.598 506.701 587.719 505.053C584.015 505.867 574.865 507.391 571.929 504.67C572.259 503.662 572.034 504.196 572.638 503.066L571.812 501.87L570.5 501.802L569.787 500.917C569.541 497.581 567.397 493.118 568.021 490.333C569.456 483.939 576.929 479.744 583.005 481.109L583.868 480.702Z"></path><path fill="#6E3338" transform="matrix(3.90625 0 0 3.90625 6.10352e-05 -0.00012207)" d="M616.918 623.427L618.277 623.898C618.259 625.46 618.03 625.25 617 626.789C617.354 627.883 617.588 628.232 617.608 629.316L616.726 628.764C613.841 632.861 612.504 642.818 610.429 647.573C605.632 658.563 605.262 679.771 591.831 683.13C590.417 683.141 588.32 682.31 586.886 681.835C585.214 679.198 582.878 674.279 587.126 672.636C588.378 672.377 589.634 672.136 590.893 671.914L590.918 671.499C591.58 671.735 592.515 672.033 593.13 672.314C592.979 665.925 591.894 650.573 592.856 644.953L592.952 644.614L593.882 643.39C592.442 639.543 590.064 631.315 586.928 629.575C585.851 628.978 585.427 628.472 584.871 627.309L584.556 625.421L591.76 625.511L592.118 625.138L592.145 624.276C594.708 624.159 601.167 623.383 602.852 624.995C602.783 627.287 601.426 628.406 599.764 630.082C600.165 632.619 603.921 642.745 605.205 645.379C606.31 640.76 608.058 635.992 608.642 631.249C608.871 629.394 607.96 629.215 606.39 627.355C606.186 625.58 606.327 625.561 607.017 623.965L607.911 624.478C611.08 624.194 613.774 623.898 616.918 623.427Z"></path><path fill="#713E41" transform="matrix(3.90625 0 0 3.90625 6.10352e-05 -0.00012207)" d="M592.856 644.953C594.411 649.589 598.448 660.053 599.449 664.287C598.32 667.302 597.487 670.384 594.934 672.379C593.66 672.568 594.198 672.706 593.13 672.314C592.979 665.925 591.894 650.573 592.856 644.953Z"></path><path fill="#2E0202" transform="matrix(3.90625 0 0 3.90625 6.10352e-05 -0.00012207)" d="M593.882 643.39C595.277 646.713 596.152 648.896 598.857 651.463C599.842 655.026 600.836 658.874 601.984 662.359C600.58 666.639 599.332 671.259 596.528 674.796L595.493 675.292C593.214 674.027 592.795 672.616 590.893 671.914L590.918 671.499C591.58 671.735 592.515 672.033 593.13 672.314C594.198 672.706 593.66 672.568 594.934 672.379C597.487 670.384 598.32 667.302 599.449 664.287C598.448 660.053 594.411 649.589 592.856 644.953L592.952 644.614L593.882 643.39Z"></path><path fill="#2E0202" transform="matrix(3.90625 0 0 3.90625 6.10352e-05 -0.00012207)" d="M617 626.789C617.354 627.883 617.588 628.232 617.608 629.316L616.726 628.764C613.841 632.861 612.504 642.818 610.429 647.573C605.632 658.563 605.262 679.771 591.831 683.13C590.417 683.141 588.32 682.31 586.886 681.835C585.214 679.198 582.878 674.279 587.126 672.636C585.932 675.556 585.722 676.024 586.5 679.092C588.551 681.077 590.012 681.804 592.979 681.252C594.905 680.581 596.736 679.929 598.097 678.244C607.317 666.827 609.286 637.639 617 626.789Z"></path><path fill="#641215" transform="matrix(3.90625 0 0 3.90625 6.10352e-05 -0.00012207)" d="M589.229 626.623L591.995 627.024C593.059 628.469 593.658 634.169 594.222 636.54C595.472 641.795 597.033 646.399 598.857 651.463C596.152 648.896 595.277 646.713 593.882 643.39C592.442 639.543 590.064 631.315 586.928 629.575C585.851 628.978 585.427 628.472 584.871 627.309L589.229 626.623Z"></path><path fill="#2E0202" transform="matrix(3.90625 0 0 3.90625 6.10352e-05 -0.00012207)" d="M607.017 623.965L607.911 624.478C608.41 626.904 608.975 626.685 611.338 627.361C612.903 630.005 607.764 644.6 606.646 647.986C605.145 646.272 605.377 647.161 605.205 645.379C606.31 640.76 608.058 635.992 608.642 631.249C608.871 629.394 607.96 629.215 606.39 627.355C606.186 625.58 606.327 625.561 607.017 623.965Z"></path><path fill="#2E0202" transform="matrix(3.90625 0 0 3.90625 6.10352e-05 -0.00012207)" d="M592.145 624.276C594.708 624.159 601.167 623.383 602.852 624.995C602.783 627.287 601.426 628.406 599.764 630.082C600.165 632.619 603.921 642.745 605.205 645.379C605.377 647.161 605.145 646.272 606.646 647.986C606.354 649.155 606.554 648.811 605.758 649.643L605.139 649.226C603.842 645.529 597.964 631.291 598.885 628.786C600.061 627.986 601.028 627.545 601.588 626.277L601.167 625.258C598.784 624.671 594.713 625.04 592.118 625.138L592.145 624.276Z"></path><path fill="#641215" transform="matrix(3.90625 0 0 3.90625 6.10352e-05 -0.00012207)" d="M586.5 679.092C586.916 677.171 586.975 675.832 588.281 674.402C592.208 672.773 592.265 679.205 592.979 681.252C590.012 681.804 588.551 681.077 586.5 679.092Z"></path><path fill="#641215" transform="matrix(3.90625 0 0 3.90625 6.10352e-05 -0.00012207)" d="M563.79 624.264C566.128 620.909 567.056 615.437 570.27 613.326L570.89 613.512C571.721 615.755 571.8 622.742 571.883 625.57C574.217 625.481 581.939 624.848 583.513 625.742L583.513 626.602C583.534 628.792 583.916 628.645 582.833 629.832L581.642 629.989C579.607 629.73 574.22 629.827 571.925 629.813C570.487 631.313 570.167 656.564 572.937 658.742C576.079 661.214 579.235 658.738 583.066 659.416C577.24 664.895 569.227 666.258 564.089 659.205C562.342 652.651 563.585 639.768 562.962 631.752L563.132 630.808L561.985 630.149C560.553 630.198 559.566 630.415 558.377 629.679L558.073 628.061L558.576 627.142C561.42 626.471 562.111 626.438 563.79 624.264Z"></path><path fill="#99555D" transform="matrix(3.90625 0 0 3.90625 6.10352e-05 -0.00012207)" d="M563.79 624.264C566.128 620.909 567.056 615.437 570.27 613.326L570.89 613.512C571.721 615.755 571.8 622.742 571.883 625.57C574.217 625.481 581.939 624.848 583.513 625.742L583.513 626.602C579.509 626.758 575.294 626.994 571.306 627.038C571.007 622.476 570.791 616.852 570.251 612.39C568.099 618.651 566.645 629.061 558.073 628.061L558.576 627.142C561.42 626.471 562.111 626.438 563.79 624.264Z"></path><path fill="#713E41" transform="matrix(3.90625 0 0 3.90625 6.10352e-05 -0.00012207)" d="M563.132 630.808L564.002 630.971C565.113 634.006 564.953 656.208 564.089 659.205C562.342 652.651 563.585 639.768 562.962 631.752L563.132 630.808Z"></path><path fill="#2E0202" transform="matrix(3.90625 0 0 3.90625 6.10352e-05 -0.00012207)" d="M463.982 618.863C451.038 621.597 453.151 601.362 463.955 606.476C466.289 610.553 469.939 614.1 464.5 618.345C465.527 618.682 466.154 618.613 466.304 619.423C467.957 628.356 466.699 640.175 466.617 649.263C466.585 652.81 465.749 657.971 466.517 660.337C465.467 660.279 465.281 660.155 464.251 659.877C463.38 652.299 463.857 637.929 464.153 629.889C464.173 629.365 465.388 626.789 465.716 626.104L464.777 625.306L464.284 624.427L464.835 623.211C464.751 621.448 464.878 620.377 463.982 618.863Z"></path><path fill="#99555D" transform="matrix(3.90625 0 0 3.90625 6.10352e-05 -0.00012207)" d="M459.528 606.395C459.958 606.439 460.388 606.483 460.818 606.527C465.549 607.488 465.433 616.296 460.779 618.094C454.262 615.612 453.835 610.542 459.528 606.395Z"></path><path fill="#641215" transform="matrix(3.90625 0 0 3.90625 6.10352e-05 -0.00012207)" d="M583.513 625.742L583.957 625.167L584.556 625.421L584.871 627.309C585.427 628.472 585.851 628.978 586.928 629.575C590.064 631.315 592.442 639.543 593.882 643.39L592.952 644.614L592.856 644.953C591.894 650.573 592.979 665.925 593.13 672.314C592.515 672.033 591.58 671.735 590.918 671.499C589.858 671.388 590.422 671.507 589.243 671.073C590.573 670.773 592.538 670.049 592.251 668.248C591.131 661.208 593.436 643.132 589.139 637.824C588.307 637.89 587.543 638.018 586.73 638.192C582.915 636.278 583.808 629.805 577.148 631.339L577.274 631.845L576.853 631.703L577.077 631.058L577.786 631.503C579.21 631.275 580.073 631.069 581.453 630.724L581.642 629.989L582.833 629.832C583.916 628.645 583.534 628.792 583.513 626.602L583.513 625.742Z"></path><path fill="#2E0202" transform="matrix(3.90625 0 0 3.90625 6.10352e-05 -0.00012207)" d="M583.513 625.742L583.957 625.167L584.556 625.421L584.871 627.309C585.427 628.472 585.851 628.978 586.928 629.575C590.064 631.315 592.442 639.543 593.882 643.39L592.952 644.614C590.717 640.287 589.974 634.183 586.579 631.128C585.384 630.053 583.208 630.588 581.453 630.724L581.642 629.989L582.833 629.832C583.916 628.645 583.534 628.792 583.513 626.602L583.513 625.742Z"></path><path fill="#713E41" transform="matrix(3.90625 0 0 3.90625 6.10352e-05 -0.00012207)" d="M583.066 659.416C579.235 658.738 576.079 661.214 572.937 658.742C570.167 656.564 570.487 631.313 571.925 629.813C573.802 636.829 569.732 653.225 574.163 657.715C575.662 658.267 575.786 658.415 577.418 658.402C579.801 657.524 580.607 656.943 582.761 655.548C583.235 657.191 583.588 657.794 583.066 659.416Z"></path><path fill="#2E0202" transform="matrix(3.90625 0 0 3.90625 6.10352e-05 -0.00012207)" d="M562.962 631.752C560.069 632.252 557.488 631.362 556.59 628.414C555.705 625.511 561.864 624.902 563.79 624.264C562.111 626.438 561.42 626.471 558.576 627.142L558.073 628.061L558.377 629.679C559.566 630.415 560.553 630.198 561.985 630.149L563.132 630.808L562.962 631.752Z"></path><path fill="#1B0405" transform="matrix(3.90625 0 0 3.90625 6.10352e-05 -0.00012207)" d="M577.418 658.402L576.244 657.735C577.182 655.924 580.803 654.96 582.761 655.548C580.607 656.943 579.801 657.524 577.418 658.402Z"></path><path fill="#641215" transform="matrix(3.90625 0 0 3.90625 6.10352e-05 -0.00012207)" d="M519.844 636.501C519.849 633.585 519.981 631.785 522.093 629.645C525.74 625.948 531.453 624.784 536.469 624.983C540.262 625.134 544.631 626.107 547.206 629.137C551.71 634.436 547.146 658.845 551.493 659.223C553.045 659.358 555.036 658.603 556.341 659.461C556.714 660.795 556.063 661.951 555.072 662.869C550.114 665.245 542.84 666.203 541.382 659.18C536.464 662.857 522.283 670.443 519.188 661.39L520.776 662.462L521.209 661.989L518.891 658.193L518.792 659.553C514.09 646.971 532.336 642.813 540.693 640.365C540.665 637.548 540.814 634.933 540.098 632.226C537.877 629.128 537.717 629.278 533.954 628.437C525.657 626.583 532.596 641.466 524.744 640.544C522.734 640.308 520.608 638.423 519.844 636.501Z"></path><defs><linearGradient id="gradient_1" gradientUnits="userSpaceOnUse" x1="519.82941" y1="655.72064" x2="539.43365" y2="652.6485"><stop offset="0" stop-color="#3D0104"></stop><stop offset="1" stop-color="#5F1012"></stop></linearGradient></defs><path fill="url(#gradient_1)" transform="matrix(3.90625 0 0 3.90625 6.10352e-05 -0.00012207)" d="M540.098 632.226C542.314 634.341 542.241 638.858 540.222 641.183C539.745 641.733 537.621 642.334 536.838 642.544C539.21 642.991 539.443 642.633 540.963 643.985C541.12 644.798 541.299 645.505 541.35 646.324C541.332 649.853 541.35 653.382 541.404 656.91C541.642 658.368 541.809 657.979 541.382 659.18C536.464 662.857 522.283 670.443 519.188 661.39L520.776 662.462L521.209 661.989L518.891 658.193L518.792 659.553C514.09 646.971 532.336 642.813 540.693 640.365C540.665 637.548 540.814 634.933 540.098 632.226Z"></path><defs><linearGradient id="gradient_2" gradientUnits="userSpaceOnUse" x1="531.7843" y1="647.46643" x2="537.7796" y2="656.66608"><stop offset="0" stop-color="#290606"></stop><stop offset="1" stop-color="#4F090B"></stop></linearGradient></defs><path fill="url(#gradient_2)" transform="matrix(3.90625 0 0 3.90625 6.10352e-05 -0.00012207)" d="M527.638 653.321C529.474 648.876 535.072 643.71 540.054 644.191L540.533 645.161L541.35 646.324C541.332 649.853 541.35 653.382 541.404 656.91C535.909 660.716 525.312 664.704 527.638 653.321Z"></path><path fill="#713E41" transform="matrix(3.90625 0 0 3.90625 6.10352e-05 -0.00012207)" d="M540.533 645.161L541.35 646.324C541.332 649.853 541.35 653.382 541.404 656.91C535.909 660.716 525.312 664.704 527.638 653.321C528.712 663.115 535.076 660.489 540.516 655.888L540.533 645.161Z"></path><path fill="#713E41" transform="matrix(3.90625 0 0 3.90625 6.10352e-05 -0.00012207)" d="M540.098 632.226C542.314 634.341 542.241 638.858 540.222 641.183C539.745 641.733 537.621 642.334 536.838 642.544C528.188 645.307 519.151 647.423 518.891 658.193L518.792 659.553C514.09 646.971 532.336 642.813 540.693 640.365C540.665 637.548 540.814 634.933 540.098 632.226Z"></path><path fill="#713E41" transform="matrix(3.90625 0 0 3.90625 6.10352e-05 -0.00012207)" d="M519.844 636.501C519.849 633.585 519.981 631.785 522.093 629.645C525.74 625.948 531.453 624.784 536.469 624.983C540.262 625.134 544.631 626.107 547.206 629.137C551.71 634.436 547.146 658.845 551.493 659.223C553.045 659.358 555.036 658.603 556.341 659.461C556.714 660.795 556.063 661.951 555.072 662.869C553.377 661.348 550.039 660.749 549.695 660.068C545.88 653.791 550.776 636.425 546.979 630.822C541.021 622.03 522.643 624.858 519.844 636.501Z"></path><path fill="#470507" transform="matrix(3.90625 0 0 3.90625 6.10352e-05 -0.00012207)" d="M488.308 630.011C493.178 627.868 493.425 627.659 497.386 631.301C499.963 632.997 499.441 636.874 499.789 639.574C500.415 644.114 497.283 652.493 491.414 650.956C484.244 649.077 484.396 637.664 485.981 631.953C486.33 630.694 487.334 630.46 488.308 630.011Z"></path><path fill="#713E41" transform="matrix(3.90625 0 0 3.90625 6.10352e-05 -0.00012207)" d="M497.386 631.301C499.963 632.997 499.441 636.874 499.789 639.574C500.415 644.114 497.283 652.493 491.414 650.956C484.244 649.077 484.396 637.664 485.981 631.953C486.33 630.694 487.334 630.46 488.308 630.011C485.85 634.17 485.186 639.148 486.467 643.806C487.312 646.873 488.644 649.025 491.664 650.198C498.857 649.954 499.007 641.314 498.602 636.007L497.386 631.301Z"></path><path fill="#1B0405" transform="matrix(3.90625 0 0 3.90625 6.10352e-05 -0.00012207)" d="M488.308 630.011C493.178 627.868 493.425 627.659 497.386 631.301L498.602 636.007C497.729 635.076 497.255 634.313 496.626 633.231C492.975 626.943 487.556 630.114 487.312 636.332C487.082 642.213 487.194 646.348 491.664 650.198C488.644 649.025 487.312 646.873 486.467 643.806C485.186 639.148 485.85 634.17 488.308 630.011Z"></path><path fill="#641215" transform="matrix(3.90625 0 0 3.90625 6.10352e-05 -0.00012207)" d="M482.59 665.949L484.284 666.334L483.093 668.361L482.453 668.015C481.768 671.016 481.05 673.183 482.961 675.924C487.247 682.075 498.02 681.112 503.25 676.81C505.513 674.95 505.467 672.825 505.703 670.134C507.258 671.561 506.412 674.107 506.043 676.028L506.102 676.722C504.408 678.55 503.815 678.881 501.715 680.32C504.006 679.783 506.251 677.958 508.264 677.138C502.604 684.903 475.587 685.171 474.365 675.089C474.025 670.446 475.186 669.385 478.585 666.267L482.59 665.949Z"></path><path fill="#713E41" transform="matrix(3.90625 0 0 3.90625 6.10352e-05 -0.00012207)" d="M506.043 676.028C502.015 678.549 501.115 680.746 495.011 681.097C490.481 681.402 486.418 680.608 482.866 677.692C480.006 675.345 480.073 670.58 482.453 668.015C481.768 671.016 481.05 673.183 482.961 675.924C487.247 682.075 498.02 681.112 503.25 676.81C505.513 674.95 505.467 672.825 505.703 670.134C507.258 671.561 506.412 674.107 506.043 676.028Z"></path><path fill="#713E41" transform="matrix(3.90625 0 0 3.90625 6.10352e-05 -0.00012207)" d="M478.585 666.267L482.59 665.949C477.021 668.577 476.013 668.923 474.365 675.089C474.025 670.446 475.186 669.385 478.585 666.267Z"></path><path fill="#641215" transform="matrix(3.90625 0 0 3.90625 6.10352e-05 -0.00012207)" d="M501.535 627.254L501.053 627.654L500.455 627.457C502.724 621.997 510.79 615.611 514.999 623.498C514.841 625.123 514.911 626.199 514.009 627.545C511.187 629.186 506.761 625.885 503.505 627.002C503.488 627.008 501.575 627.248 501.535 627.254Z"></path><path fill="#713E41" transform="matrix(3.90625 0 0 3.90625 6.10352e-05 -0.00012207)" d="M501.535 627.254L501.053 627.654L500.455 627.457C502.724 621.997 510.79 615.611 514.999 623.498C509.221 618.519 505.287 621.711 501.535 627.254Z"></path><path fill="#1B0405" transform="matrix(3.90625 0 0 3.90625 6.10352e-05 -0.00012207)" d="M506.222 646.288C506.29 643.428 508.381 638.359 507.125 634.83C506.504 633.083 504.39 631.652 503.708 629.595L504.485 629.633C507.173 631.851 507.628 633.627 508.609 636.969C510.139 639.198 510.161 641.014 509.622 643.618C508.169 650.642 498.871 653.04 493.282 654.614C493.517 655.333 493.289 654.984 494.205 655.46C491.378 655.668 487.24 652.768 484.574 654.135C485.446 657.504 492.366 656.748 495.655 657.078L495.762 657.528C492.364 657.531 486.44 657.938 484.086 655.621C483.603 653.575 483.581 654.623 484.602 652.403C490.908 655.238 502.269 652.383 506.222 646.288Z"></path><path fill="#641215" transform="matrix(3.90625 0 0 3.90625 6.10352e-05 -0.00012207)" d="M506.222 646.288C506.29 643.428 508.381 638.359 507.125 634.83C506.504 633.083 504.39 631.652 503.708 629.595L504.485 629.633C507.173 631.851 507.628 633.627 508.609 636.969C508.635 641.396 508.634 642.418 506.222 646.288Z"></path><path fill="#641215" transform="matrix(3.90625 0 0 3.90625 6.10352e-05 -0.00012207)" d="M482.892 650.563L484.863 651.208L485.058 651.919L484.602 652.403C483.581 654.623 483.603 653.575 484.086 655.621C486.44 657.938 492.364 657.531 495.762 657.528C503.834 658.621 507.006 657.828 512.1 664.182C512.693 668.157 512.96 669.525 511.98 673.538L511.02 674.402C514.716 654.886 499.437 660.652 487.275 658.634C483.706 658.041 483.392 654.015 481.408 653.042C475.063 656.337 478.213 660.707 481.653 664.336C478.393 662.939 479.386 663.439 477.083 660.418C476.255 656.772 477.226 655.411 479.509 652.754L482.892 650.563Z"></path><path fill="#2E0202" transform="matrix(3.90625 0 0 3.90625 6.10352e-05 -0.00012207)" d="M479.509 652.754C478.582 648.338 468.545 640.008 475.305 636.587L475.624 635.129L476.406 634.786C475.668 638.937 475.142 641.769 477.599 645.476C478.828 647.892 480.325 649.515 482.892 650.563L479.509 652.754Z"></path><path fill="#713E41" transform="matrix(3.90625 0 0 3.90625 6.10352e-05 -0.00012207)" d="M476.406 634.786C481.935 626.615 487.89 623.69 497.818 625.807L498.628 626.497C492.7 627.112 486.346 624.522 480.329 631.158C477.684 634.075 476.799 638.968 477.226 642.845C477.325 643.725 477.45 644.602 477.599 645.476C475.142 641.769 475.668 638.937 476.406 634.786Z"></path><path fill="#1B0405" transform="matrix(3.90625 0 0 3.90625 6.10352e-05 -0.00012207)" d="M484.284 666.334C489.698 666.455 500.509 665.788 504.289 669.105C504.36 669.088 494.679 667.94 493.206 667.958C488.608 668.012 488.697 667.21 484.012 669L483.093 668.361L484.284 666.334Z"></path><defs><linearGradient id="gradient_3" gradientUnits="userSpaceOnUse" x1="490.19287" y1="603.6944" x2="411.41388" y2="596.31555"><stop offset="0" stop-color="#8C4A50"></stop><stop offset="1" stop-color="#916569"></stop></linearGradient></defs><path fill="url(#gradient_3)" transform="matrix(3.90625 0 0 3.90625 6.10352e-05 -0.00012207)" d="M494.956 270.088C510.372 270.033 526.135 270.855 541.436 270.493C541.63 271.906 541.857 273.238 541.919 274.662L541.974 275.067C541.592 281.062 542.972 292.75 543.648 298.918C545.817 318.605 548.755 338.2 552.455 357.658C553.672 363.979 556.474 374.276 557.168 380.149C555.168 377.958 555.917 375.39 554.285 374.228C546.701 375.469 545.295 379.123 536.118 372.096C530.244 367.598 522.772 362.754 517.139 358.139C511.611 361.14 506.643 355.906 504.151 358.587C500.235 362.799 498.149 370.521 495.364 375.654C492.693 380.962 487.302 385.639 486.527 391.342C486.489 392.283 486.043 392.745 485.465 393.489C482.943 411.845 481.312 430.433 477.962 448.661C477.123 453.221 475.368 462.942 473.945 467.178C464.174 511.298 465.459 554.452 465.035 599.242C465.009 602.013 465.575 605.096 463.955 606.476C453.151 601.362 451.038 621.597 463.982 618.863C464.878 620.377 464.751 621.448 464.835 623.211L464.284 624.427L464.777 625.306L465.716 626.104C465.388 626.789 464.173 629.365 464.153 629.889C463.857 637.929 463.38 652.299 464.251 659.877C465.281 660.155 465.467 660.279 466.517 660.337C468.535 660.976 468.675 660.969 470.222 662.337L470.539 663.463C469.466 664.698 470.102 664.253 468.539 664.82C467.096 665.427 466.977 665.563 465.377 665.706C464.83 672.694 465.162 682.913 465.148 690.232L465.219 737.537C465.494 785.136 466.034 834.584 465.488 882.085L465.416 886.293C465.592 904.778 464.35 924.813 469.987 942.615C471.039 945.937 474.919 951.232 476.981 954.174C478.114 955.184 479.036 955.637 479.421 956.857C473.091 958.432 437.939 955.447 430.94 953.348C424.068 946.152 420.366 937.233 417.831 927.845L417.197 927.704C414.812 916.719 415.207 900.968 415.199 889.526L415.5 725.17C415.491 704.854 415.579 684.525 415.64 664.211C415.67 654.06 403.776 644.563 406.246 630.732C407.917 621.373 406.228 617.345 414.55 609.505C415.696 608.533 415.718 608.607 416.43 607.312C414.41 603.167 417.071 527.065 418.221 518.007L418.949 520.135L419.401 518.414L420.835 518.582C421.935 515.091 424.035 508.885 424.388 505.49C426.15 499.033 426.376 493.903 425.749 487.272C425.803 487.848 426.4 484.987 426.372 485.12L424.482 483.954C430.385 462.029 438.714 441.8 446.38 420.553C457.963 388.453 465.737 354.851 471.1 321.191C471.893 316.211 472.682 310.919 473.036 305.892C474.199 303.489 476.456 278.74 477.134 273.828C482.455 274.041 490.661 275.615 495.019 275.451L494.956 270.088Z"></path><path fill="#641215" transform="matrix(3.90625 0 0 3.90625 6.10352e-05 -0.00012207)" d="M494.956 270.088C510.372 270.033 526.135 270.855 541.436 270.493C541.63 271.906 541.857 273.238 541.919 274.662L541.974 275.067C541.592 281.062 542.972 292.75 543.648 298.918C545.817 318.605 548.755 338.2 552.455 357.658C553.672 363.979 556.474 374.276 557.168 380.149C555.168 377.958 555.917 375.39 554.285 374.228C546.701 375.469 545.295 379.123 536.118 372.096C530.244 367.598 522.772 362.754 517.139 358.139C511.611 361.14 506.643 355.906 504.151 358.587C500.235 362.799 498.149 370.521 495.364 375.654C492.693 380.962 487.302 385.639 486.527 391.342C486.489 392.283 486.043 392.745 485.465 393.489C485.366 388.334 488.039 378.221 488.059 371.773C489.256 365.493 490.016 353.632 490.728 346.813C493.216 323 494.113 299.355 495.019 275.451L494.956 270.088Z"></path><path fill="#2E0202" transform="matrix(3.90625 0 0 3.90625 6.10352e-05 -0.00012207)" d="M494.956 270.088C510.372 270.033 526.135 270.855 541.436 270.493C541.63 271.906 541.857 273.238 541.919 274.662C538.475 276.718 500.629 276.197 495.019 275.451L494.956 270.088Z"></path><defs><linearGradient id="gradient_4" gradientUnits="userSpaceOnUse" x1="449.88455" y1="959.052" x2="441.53885" y2="883.5376"><stop offset="0" stop-color="#543736"></stop><stop offset="1" stop-color="#846065"></stop></linearGradient></defs><path fill="url(#gradient_4)" transform="matrix(3.90625 0 0 3.90625 6.10352e-05 -0.00012207)" d="M464.808 881.305C464.692 883.21 464.393 884.991 465.416 886.293C465.592 904.778 464.35 924.813 469.987 942.615C471.039 945.937 474.919 951.232 476.981 954.174C478.114 955.184 479.036 955.637 479.421 956.857C473.091 958.432 437.939 955.447 430.94 953.348C424.068 946.152 420.366 937.233 417.831 927.845C417.167 923.103 416.256 917.415 416.18 912.703C417.209 915.693 417.515 921.305 418.307 925.027C424.761 924.649 448.491 897.068 453.766 890.972C456.147 888.221 461.788 883.786 464.808 881.305Z"></path><path fill="#B88A92" transform="matrix(3.90625 0 0 3.90625 6.10352e-05 -0.00012207)" d="M443.031 486.836C443.65 483.015 443.193 478.674 445.771 475.656C446.541 477.843 444.428 480.059 445.104 483.047C446.094 482.555 446.349 482.472 447.453 482.43C453.697 486.301 460.76 514.715 454.524 521.064C449.014 526.673 448.253 535.554 441.921 538.403C437.678 539.938 435.452 527.075 433.938 526.217L433.279 527.384L433.359 527.155C432.556 525.957 432.195 522.321 432.732 521.058C431.34 519.045 431.068 509.341 429.764 505.444L429.327 505.282C424.808 508.095 423.55 517.873 421.46 519.576L420.835 518.582C421.935 515.091 424.035 508.885 424.388 505.49C426.15 499.033 426.376 493.903 425.749 487.272C425.803 487.848 426.4 484.987 426.372 485.12L427.449 483.394L428.208 483.51C429.822 487.245 427.332 498.167 430.017 501.25C432.566 500.598 440.722 489.418 443.031 486.836Z"></path><path fill="#C7979E" transform="matrix(3.90625 0 0 3.90625 6.10352e-05 -0.00012207)" d="M442.276 490.953L442.547 490.533C443.994 488.262 444.281 486.504 445.986 484.967C452.46 484.281 456.085 508.17 455.893 512.744C455.715 517.003 445.09 535.782 440.839 536.176C437.337 533.668 436.513 527.276 435.085 522.925C431.004 506.572 432.332 503.797 442.276 490.953Z"></path><path fill="#F4E0E3" transform="matrix(3.90625 0 0 3.90625 6.10352e-05 -0.00012207)" d="M444.134 497.226C451.31 501.667 450.078 517.356 442.997 520.284C436.691 519.121 437.006 508.74 439.076 504.312C440.584 501.085 441.808 499.849 444.134 497.226Z"></path><path fill="#6E3338" transform="matrix(3.90625 0 0 3.90625 6.10352e-05 -0.00012207)" d="M417.831 927.845L417.197 927.704C414.812 916.719 415.207 900.968 415.199 889.526L415.5 725.17C415.491 704.854 415.579 684.525 415.64 664.211C415.67 654.06 403.776 644.563 406.246 630.732C407.917 621.373 406.228 617.345 414.55 609.505L415.485 610.658L415.863 610.645C415.682 612.442 415.511 614.066 415.441 615.87C415.493 618.252 415.299 622.408 416.334 624.386C416.732 629.321 416.592 638.889 416.44 644.003C417.93 654.134 423.601 662.035 434.738 659.334C435.418 659.859 434.991 659.645 436.094 659.793C438.628 658.697 439.748 657.402 441.226 655.092C440.599 652.967 443.176 647.932 444.195 645.264C443.9 644.64 444.04 645.058 444.05 643.95C446.468 643.965 445.784 643.624 447.543 644.806C449.091 647.422 449.702 656.791 448.468 659.262C442.877 670.46 422.308 664.183 416.063 658.67L416.118 832.085L416.087 883.839C416.084 892.943 415.837 903.682 416.18 912.703C416.256 917.415 417.167 923.103 417.831 927.845Z"></path><path fill="#470507" transform="matrix(3.90625 0 0 3.90625 6.10352e-05 -0.00012207)" d="M415.485 610.658L415.863 610.645C415.682 612.442 415.511 614.066 415.441 615.87C415.493 618.252 415.299 622.408 416.334 624.386C416.732 629.321 416.592 638.889 416.44 644.003L415.379 643.616C415.399 646.702 415.309 650.661 415.725 653.636L414.715 654.123C414.349 653.969 413.842 653.797 413.612 653.459C406.09 642.404 404.848 619.849 415.485 610.658Z"></path><path fill="#6E3338" transform="matrix(3.90625 0 0 3.90625 6.10352e-05 -0.00012207)" d="M415.441 615.87C415.493 618.252 415.299 622.408 416.334 624.386C416.732 629.321 416.592 638.889 416.44 644.003L415.379 643.616C414.784 639.252 414.688 619.998 415.441 615.87Z"></path><path fill="#99555D" transform="matrix(3.90625 0 0 3.90625 6.10352e-05 -0.00012207)" d="M415.379 643.616L416.44 644.003C417.93 654.134 423.601 662.035 434.738 659.334C435.418 659.859 434.991 659.645 436.094 659.793C438.628 658.697 439.748 657.402 441.226 655.092C440.599 652.967 443.176 647.932 444.195 645.264C443.9 644.64 444.04 645.058 444.05 643.95C444.807 644.437 445.94 644.913 445.974 645.599C446.21 650.266 445.34 655.768 445.202 660.573C436.613 662.775 428.247 665.054 419.901 660.017C415.061 657.096 417.26 656.853 415.725 653.636C415.309 650.661 415.399 646.702 415.379 643.616Z"></path><path fill="#B88A92" transform="matrix(3.90625 0 0 3.90625 6.10352e-05 -0.00012207)" d="M444.195 645.264C445.553 648.187 442.812 652.486 441.226 655.092C440.599 652.967 443.176 647.932 444.195 645.264Z"></path><path fill="#641215" transform="matrix(3.90625 0 0 3.90625 6.10352e-05 -0.00012207)" d="M473.945 467.178C473.921 466.715 473.896 466.252 473.871 465.789C473.39 462.063 475.874 457.265 475.68 453.705C475.442 449.318 474.346 444.753 474.036 440.347C472.22 423.899 473.348 410.512 479.767 395.125C481.1 391.93 484.506 389.353 485.207 387.066C486.782 381.92 485.728 377.112 488.059 371.773C488.039 378.221 485.366 388.334 485.465 393.489C482.943 411.845 481.312 430.433 477.962 448.661C477.123 453.221 475.368 462.942 473.945 467.178Z"></path><defs><linearGradient id="gradient_5" gradientUnits="userSpaceOnUse" x1="464.95123" y1="643.67938" x2="451.04877" y2="644.82062"><stop offset="0" stop-color="#8A4C52"></stop><stop offset="1" stop-color="#A66970"></stop></linearGradient></defs><path fill="url(#gradient_5)" transform="matrix(3.90625 0 0 3.90625 6.10352e-05 -0.00012207)" d="M464.777 625.306L465.716 626.104C465.388 626.789 464.173 629.365 464.153 629.889C463.857 637.929 463.38 652.299 464.251 659.877C463.069 663.136 460.68 662.558 457.409 662.861C456.069 663.649 453.449 663.777 451.999 663.191L451.846 662.288L452.998 661.112C454.21 660.932 456.888 660.697 456.962 659.058C457.37 649.989 458.381 639.441 456.363 630.595C456.234 630.027 452.315 629.458 451.525 629.299L451.068 627.855C455.872 627.265 460.071 625.927 464.777 625.306Z"></path><path fill="#99555D" transform="matrix(3.90625 0 0 3.90625 6.10352e-05 -0.00012207)" d="M420.334 605.081C432.303 603.276 434.187 605.614 445.273 608.529L445.214 609.066C444.879 612.36 445.67 621.813 444.867 623.252C444.485 623.208 443.916 623.177 443.585 623.056L442.982 623.237L442.948 622.658C443.35 617.641 437.641 610.877 433.616 608.349C422.429 605.77 418.584 612.537 416.677 622.473C416.55 623.109 416.436 623.747 416.334 624.386C415.299 622.408 415.493 618.252 415.441 615.87C415.511 614.066 415.682 612.442 415.863 610.645L415.485 610.658L414.55 609.505C415.696 608.533 415.718 608.607 416.43 607.312C418.079 605.968 418.346 605.569 420.334 605.081Z"></path><path fill="#2E0202" transform="matrix(3.90625 0 0 3.90625 6.10352e-05 -0.00012207)" d="M416.334 624.386C416.436 623.747 416.55 623.109 416.677 622.473C418.584 612.537 422.429 605.77 433.616 608.349C431.631 609.019 431.293 609.14 429.236 609.359C415.292 613.748 417.595 638.445 420.977 649.448C423.153 656.525 427.561 659.144 434.642 658.753L434.738 659.334C423.601 662.035 417.93 654.134 416.44 644.003C416.592 638.889 416.732 629.321 416.334 624.386Z"></path><path fill="#6E3338" transform="matrix(3.90625 0 0 3.90625 6.10352e-05 -0.00012207)" d="M456.233 659.556L456.286 635.004C456.289 632.869 456.343 632.945 455.156 631.756C453.509 631.333 452.86 631.29 451.488 630.249L451.525 629.299C452.315 629.458 456.234 630.027 456.363 630.595C458.381 639.441 457.37 649.989 456.962 659.058C456.888 660.697 454.21 660.932 452.998 661.112L451.846 662.288L451.999 663.191C453.449 663.777 456.069 663.649 457.409 662.861C460.68 662.558 463.069 663.136 464.251 659.877C465.281 660.155 465.467 660.279 466.517 660.337C468.535 660.976 468.675 660.969 470.222 662.337L470.539 663.463C469.466 664.698 470.102 664.253 468.539 664.82C467.096 665.427 466.977 665.563 465.377 665.706C461.573 665.652 452.913 666.132 450.876 662.751L451.437 661.544C453.078 660.046 453.964 660.071 456.233 659.556Z"></path><path fill="#641215" transform="matrix(3.90625 0 0 3.90625 6.10352e-05 -0.00012207)" d="M464.251 659.877C465.281 660.155 465.467 660.279 466.517 660.337C468.535 660.976 468.675 660.969 470.222 662.337L470.539 663.463C469.466 664.698 470.102 664.253 468.539 664.82C464.429 663.768 460.262 665.223 457.409 662.861C460.68 662.558 463.069 663.136 464.251 659.877Z"></path><path fill="#2E0202" transform="matrix(3.90625 0 0 3.90625 6.10352e-05 -0.00012207)" d="M445.953 607.712C447.905 609.375 447.644 609.274 448.022 612.14C448.428 615.217 448.296 622.095 446.335 624.455L444.775 625.043C443.621 623.952 444.005 624.591 443.585 623.056C443.916 623.177 444.485 623.208 444.867 623.252C445.67 621.813 444.879 612.36 445.214 609.066L445.273 608.529L445.953 607.712Z"></path><path fill="#1B0405" transform="matrix(3.90625 0 0 3.90625 6.10352e-05 -0.00012207)" d="M420.334 605.081C429.602 601.218 437.263 604.362 445.953 607.712L445.273 608.529C434.187 605.614 432.303 603.276 420.334 605.081Z"></path><path fill="#6E3338" transform="matrix(3.90625 0 0 3.90625 6.10352e-05 -0.00012207)" d="M433.616 608.349C437.641 610.877 443.35 617.641 442.948 622.658C439.643 615.373 438.255 609.59 429.236 609.359C431.293 609.14 431.631 609.019 433.616 608.349Z"></path><path fill="#641215" transform="matrix(3.90625 0 0 3.90625 6.10352e-05 -0.00012207)" d="M451.068 627.855L451.722 626.89C454.672 626.073 461.198 624.899 464.284 624.427L464.777 625.306C460.071 625.927 455.872 627.265 451.068 627.855Z"></path><path fill="#470507" transform="matrix(3.90625 0 0 3.90625 6.10352e-05 -0.00012207)" d="M470.28 64.4616C474.599 56.8485 478.23 57.2698 486.233 57.1831C503.944 57.0256 521.625 56.2273 539.337 56.972C542.907 57.1221 547.207 56.8669 550.236 59.1403C555.654 63.2059 553.121 70.0164 554.433 75.2882C555.964 78.8663 557.922 81.2503 557.885 85.4201C557.801 95.0268 560.116 101.486 553.353 109.546C553.913 122.826 553.756 136.037 554.289 149.258C555.326 174.924 555.475 200.729 556.577 226.384L556.535 226.99C556.368 229.655 556.969 236.691 555.939 238.124C553.726 238.342 554.476 237.882 553.071 238.969L552.447 240.591C552.079 239.591 551.859 239.391 551.279 238.477L548.985 238.418L539.446 238.597C539.527 243.401 540.405 266.461 541.614 270.063L541.436 270.493C526.135 270.855 510.372 270.033 494.956 270.088L495.019 275.451C490.661 275.615 482.455 274.041 477.134 273.828C476.456 278.74 474.199 303.489 473.036 305.892C470.237 303.471 479.918 276.556 473.482 272.842C471.506 272.938 472.381 272.642 470.754 273.75C469.358 275.88 467.822 296.238 468.413 300.502C471.172 302.477 468.925 308.989 467.761 311.505L467.227 311.402C467.273 309.733 467.451 309.984 466.848 308.536C465.993 309.187 466.468 308.976 465.429 309.178C466.454 298.389 473.542 245.084 471.412 238.726C467.964 237.285 468.132 238.045 467.057 234.676C466.534 226.488 467.642 215.515 467.921 207.047C468.774 181.197 469.608 155.277 470.091 129.418C470.22 122.507 470.678 116.085 470.542 109.124C468.579 106.982 467.851 106.187 466.243 103.698C466.062 96.7594 465.31 87.2319 466.926 80.4962C467.189 79.4014 469.157 76.516 469.869 75.4522L470.28 64.4616Z"></path><path fill="#6E3338" transform="matrix(3.90625 0 0 3.90625 6.10352e-05 -0.00012207)" d="M481.714 107.158C487.25 106.435 493.533 106.365 499.165 106.163C497.714 116.891 497.648 127.714 497.482 138.515C497.223 155.487 496.563 172.451 496.691 189.426C496.726 194.041 496.781 198.656 496.577 203.268C496.075 209.224 496.278 215.957 496.119 222.001C495.986 227.068 495.434 233.665 495.875 238.594C493.103 238.536 481.069 237.82 479.623 239.2L478.99 242.698C478.767 239.655 478.852 237.041 478.967 234.009C480.353 197.284 480.487 160.516 482.1 123.786C482.353 118.023 482.274 112.923 481.714 107.158Z"></path><path fill="#713E41" transform="matrix(3.90625 0 0 3.90625 6.10352e-05 -0.00012207)" d="M496.577 203.268C497.84 216.42 497.085 225.559 497.247 238.182C508.59 238.927 526.64 238.854 538.407 238.34L539.446 238.597C539.527 243.401 540.405 266.461 541.614 270.063L541.436 270.493C526.135 270.855 510.372 270.033 494.956 270.088L495.019 275.451C490.661 275.615 482.455 274.041 477.134 273.828C477.69 271.297 477.344 267.637 477.917 264.24C477.87 257.645 478.989 250.019 478.99 242.698L479.623 239.2C481.069 237.82 493.103 238.536 495.875 238.594C495.434 233.665 495.986 227.068 496.119 222.001C496.278 215.957 496.075 209.224 496.577 203.268Z"></path><path fill="#9A6A6D" transform="matrix(3.90625 0 0 3.90625 6.10352e-05 -0.00012207)" d="M478.99 242.698L479.623 239.2C481.069 237.82 493.103 238.536 495.875 238.594C495.905 245.155 495.686 263.618 494.75 269.626L494.956 270.088L495.019 275.451C490.661 275.615 482.455 274.041 477.134 273.828C477.69 271.297 477.344 267.637 477.917 264.24C477.87 257.645 478.989 250.019 478.99 242.698Z"></path><path fill="#713E41" transform="matrix(3.90625 0 0 3.90625 6.10352e-05 -0.00012207)" d="M477.134 273.828C477.69 271.297 477.344 267.637 477.917 264.24C478.017 266.852 477.597 266.942 478.808 268.777C483.595 271.243 488.729 268.77 494.75 269.626L494.956 270.088L495.019 275.451C490.661 275.615 482.455 274.041 477.134 273.828Z"></path><path fill="#6E3338" transform="matrix(3.90625 0 0 3.90625 6.10352e-05 -0.00012207)" d="M538.407 238.34C542.018 235.18 534.692 119.015 538.887 113.555C541.084 112.808 542.347 112.813 544.654 112.62L545.279 113.106C546.63 139.553 547.562 166.02 548.073 192.496C548.272 199.265 548.914 234.931 551.279 238.477L548.985 238.418L539.446 238.597L538.407 238.34Z"></path><path fill="#6E3338" transform="matrix(3.90625 0 0 3.90625 6.10352e-05 -0.00012207)" d="M478.851 102.372C479.528 80.2358 473.072 78.6916 497.002 77.9869C497.033 84.5944 496.715 95.9597 497.528 102.032L494.821 101.952C489.099 102.276 484.603 102.456 478.851 102.372Z"></path><path fill="#641215" transform="matrix(3.90625 0 0 3.90625 6.10352e-05 -0.00012207)" d="M541.841 78.6918L549.137 79.1717C549.352 84.2248 550.117 97.2414 548.733 101.567L547.611 102.117C544.781 101.929 542.122 101.945 539.469 101.017C538.871 99.9352 539.975 80.0909 541.841 78.6918Z"></path><path fill="#6E3338" transform="matrix(3.90625 0 0 3.90625 6.10352e-05 -0.00012207)" d="M488.766 64.149C491.498 63.6851 496.174 63.8923 498.918 64.0324C498.927 67.055 499.222 70.0076 499.473 73.0184L492.006 73.2188L481.927 73.4379L481.342 65.7376C484.519 64.7066 485.502 64.5731 488.766 64.149Z"></path><path fill="#641215" transform="matrix(3.90625 0 0 3.90625 6.10352e-05 -0.00012207)" d="M497.528 102.032C499.371 102.369 506.324 101.901 508.883 101.902C521.224 101.904 532.107 101.442 544.175 104.463C537.071 105.583 498.789 106.914 494.821 101.952L497.528 102.032Z"></path><defs><linearGradient id="gradient_6" gradientUnits="userSpaceOnUse" x1="562.36981" y1="461.83688" x2="602.48041" y2="454.18988"><stop offset="0" stop-color="#7C393E"></stop><stop offset="1" stop-color="#7D5253"></stop></linearGradient></defs><path fill="url(#gradient_6)" transform="matrix(3.90625 0 0 3.90625 6.10352e-05 -0.00012207)" d="M541.614 270.063C544.892 270.242 547.879 270.372 551.161 270.396L551.542 273.144C553.134 286.625 554.609 300.162 556.937 313.537C557.463 316.559 558.58 324.074 559.573 326.64C564.1 350.13 571.949 379.12 580.193 401.768C589.434 427.154 599.507 449.414 606.759 475.843C616.683 512.009 617.743 543.731 617.332 580.956C617.27 586.564 617.86 619.745 616.969 622.705L616.918 623.427C613.774 623.898 611.08 624.194 607.911 624.478L607.017 623.965C606.327 625.561 606.186 625.58 606.39 627.355C607.96 629.215 608.871 629.394 608.642 631.249C608.058 635.992 606.31 640.76 605.205 645.379C603.921 642.745 600.165 632.619 599.764 630.082C601.426 628.406 602.783 627.287 602.852 624.995C601.167 623.383 594.708 624.159 592.145 624.276C592.071 621.021 592.074 617.425 592.169 614.169C593.019 584.967 591.784 556.091 591.047 526.948C590.817 521.293 589.813 514.048 589.047 508.392C589.69 506.019 589.758 507.125 589.07 504.95L587.999 500.433C588.16 498.533 586.078 491.169 586.221 486.417C586.008 484.562 585.67 481.894 584.738 480.324L583.868 480.702C583.904 477.133 582.158 470.461 581.287 466.759C580.424 464.371 579.786 461.443 579.113 458.963C573.013 436.499 565.307 414.475 560.09 391.772C559.215 387.965 558.31 383.87 557.168 380.149C556.474 374.276 553.672 363.979 552.455 357.658C548.755 338.2 545.817 318.605 543.648 298.918C542.972 292.75 541.592 281.062 541.974 275.067L541.919 274.662C541.857 273.238 541.63 271.906 541.436 270.493L541.614 270.063Z"></path><path fill="#9A6A6D" transform="matrix(3.90625 0 0 3.90625 6.10352e-05 -0.00012207)" d="M586.221 486.417C587.305 488.258 590.542 488.469 590.491 491.067C590.376 497.004 588.267 498.737 589.07 504.95L587.999 500.433C588.16 498.533 586.078 491.169 586.221 486.417Z"></path><path fill="#713E41" transform="matrix(3.90625 0 0 3.90625 6.10352e-05 -0.00012207)" d="M541.614 270.063C544.892 270.242 547.879 270.372 551.161 270.396L551.542 273.144C548.408 273.79 545.114 274.523 541.974 275.067L541.919 274.662C541.857 273.238 541.63 271.906 541.436 270.493L541.614 270.063Z"></path><path fill="#2E0202" transform="matrix(3.90625 0 0 3.90625 6.10352e-05 -0.00012207)" d="M607.017 623.965C609.028 623.073 614.716 622.693 616.969 622.705L616.918 623.427C613.774 623.898 611.08 624.194 607.911 624.478L607.017 623.965Z"></path><path fill="#713E41" transform="matrix(3.90625 0 0 3.90625 6.10352e-05 -0.00012207)" d="M591.831 683.13C605.262 679.771 605.632 658.563 610.429 647.573C612.504 642.818 613.841 632.861 616.726 628.764L617.608 629.316C617.176 640.181 617.434 652.305 617.413 663.317L617.173 710.109L617.114 838.409L617.371 881.581C617.483 895.949 618.516 920.031 614.448 933.089C610.171 931.807 596.336 919.247 593.51 914.628C593.155 914.048 592.592 911.274 592.435 910.424C592.896 900.369 592.482 886.806 592.474 876.384L592.222 803.734L592.247 732.964C592.28 716.406 592.513 699.653 591.831 683.13Z"></path><path fill="#6E3338" transform="matrix(3.90625 0 0 3.90625 6.10352e-05 -0.00012207)" d="M592.435 910.424C592.592 911.274 593.155 914.048 593.51 914.628C596.336 919.247 610.171 931.807 614.448 933.089C612.826 938.228 611.265 942.166 609.088 947.08C608.555 948.158 608.057 949.178 607.483 950.237C597.724 953.412 581.991 955.175 571.859 955.048C573.802 954.096 575.06 953.479 577.082 952.747C589.1 947.751 591.072 925.434 592.054 914.463L592.435 910.424Z"></path><path fill="#9A6A6D" transform="matrix(3.90625 0 0 3.90625 6.10352e-05 -0.00012207)" d="M539.446 238.597L548.985 238.418C549.327 247.977 550.218 260.821 551.161 270.396C547.879 270.372 544.892 270.242 541.614 270.063C540.405 266.461 539.527 243.401 539.446 238.597Z"></path><path fill="#641215" transform="matrix(3.90625 0 0 3.90625 6.10352e-05 -0.00012207)" d="M548.985 238.418L551.279 238.477C551.859 239.391 552.079 239.591 552.447 240.591C553.522 258.473 556.028 276.604 557.905 294.42C558.547 300.512 561.282 313.16 561.277 317.89C559.94 315.4 560.01 309.984 559.357 307.18C555.778 291.82 556.372 275.125 553.099 259.857L552.978 260.706C552.361 255.685 552.549 243.075 551.177 239.357L550.448 239.099C549.123 241.595 551.245 247.476 551.262 250.331C551.407 273.66 554.937 296.843 559.012 319.767C559.442 322.187 559.846 324.15 559.573 326.64C558.58 324.074 557.463 316.559 556.937 313.537C554.609 300.162 553.134 286.625 551.542 273.144L551.161 270.396C550.218 260.821 549.327 247.977 548.985 238.418Z"></path><path fill="#C4ACB0" transform="matrix(3.90625 0 0 3.90625 6.10352e-05 -0.00012207)" d="M424.482 483.954L426.372 485.12C426.4 484.987 425.803 487.848 425.749 487.272C426.376 493.903 426.15 499.033 424.388 505.49L423.914 505.72C423.104 504.834 423.23 505.015 422.198 504.336L421.236 504.552L420.806 505.593L420.411 502.839C420.362 500.024 423.669 487.381 424.482 483.954Z"></path><path fill="#C7979E" transform="matrix(3.90625 0 0 3.90625 6.10352e-05 -0.00012207)" d="M420.411 502.839L420.806 505.593L421.236 504.552L422.198 504.336C423.23 505.015 423.104 504.834 423.914 505.72L424.388 505.49C424.035 508.885 421.935 515.091 420.835 518.582L419.401 518.414L418.949 520.135L418.221 518.007C418.803 513.512 419.441 507.128 420.411 502.839Z"></path><path fill="#470507" transform="matrix(3.90625 0 0 3.90625 6.10352e-05 -0.00012207)" d="M609.088 947.08C613.293 945.926 615.424 945.549 619.964 945.429C615.819 947.203 611.686 948.631 607.483 950.237C608.057 949.178 608.555 948.158 609.088 947.08Z"></path></svg>